<?xml version="1.0" ?><svg style="enable-background:new 0 0 512 512;" version="1.1" viewBox="0 0 512 512" xml:space="preserve" xmlns="http://www.w3.org/2000/svg" xmlns:xlink="http://www.w3.org/1999/xlink"><style type="text/css">
	.st0{fill:#7A301A;}
	.st1{fill:#FF6C2C;}
	.st2{opacity:0.45;fill:#231F20;}
	.st3{fill:#FFFFFF;}
</style><g id="Edges"/><g id="Background_Bottom"><g><path class="st0" d="M492.3,443.1c0,34.2-27.7,61.9-61.9,61.9H80.7c-34.2,0-61.9-27.7-61.9-61.9V93.4c0-34.2,27.7-61.9,61.9-61.9    h349.7c34.2,0,61.9,27.7,61.9,61.9V443.1z"/></g></g><g id="Background"><path class="st1" d="M492.3,418.4c0,34.2-27.7,61.9-61.9,61.9H80.7c-34.2,0-61.9-27.7-61.9-61.9V68.6c0-34.2,27.7-61.9,61.9-61.9   h349.7c34.2,0,61.9,27.7,61.9,61.9V418.4z"/></g><g id="Shadow"><path class="st2" d="M492.3,276.8l-60.7-60.7v0l0,0l0,0l0,0l-16.6,0.9l-17.6-0.9v6.1l0,0l10.7,10.7c-0.3,0.7-0.6,1.5-1.1,2.6   c-0.4,1.1-1.4,3.4-2.6,6.5l-25.8-25.8v0l-23.9,0.9l-19-0.9v6.1l0,0l12.2,12.2c1.3,3,2.7,6.1,4,9.2l-26-26l0,0   c-5.6-2.4-17.3-3.8-24.6-3.8c-14.7,0-26.9,5.5-30,17.7l-15.1-15.1l0,0l0,0l0,0l0,0l-1.5,0.1l-25.7-25.7v0h-7.3   c-0.9,5.4-2.3,9.9-4,13.6l-31.6-31.6c0,0,0,0,0,0s0,0,0,0l0,0l0,0c-0.7,0.1-17.3,1.9-27.2,1.9H108l-27.4-0.9v7.3l9.2,1.7   c6.4,1.2,8,2.6,8.5,8.5c0,0,0.5,17.4,0.5,46.2c0,28.8-0.5,46-0.5,46c0,5.2-2.1,7.1-8.5,8.4l-9.2,1.7v7.3l0.1,0l179.1,179.1   c56.9,0,113.8,0,170.7,0c34.2,0,61.9-27.7,61.9-61.9C492.3,371.2,492.3,324,492.3,276.8z"/></g><g id="Symbol"><path class="st3" d="M118.3,186c0-1.7,0.2-2.8,3.1-2.8h39.9c7,0,10.8,5.9,13.6,17.1l2.3,8.9h6.8c1.2-25.3,2.3-36.3,2.3-36.3   s-17.1,1.9-27.2,1.9H108l-27.4-0.9v7.3l9.2,1.7c6.4,1.2,8,2.6,8.5,8.5c0,0,0.5,17.4,0.5,46.2s-0.5,46-0.5,46c0,5.2-2.1,7.1-8.5,8.4   l-9.2,1.7v7.3l27.4-0.9h45.7c10.3,0,34.2,0.9,34.2,0.9c0.5-6.3,4-34.7,4.5-37.8h-6.4l-6.8,15.5c-5.4,12.2-13.2,13.1-22,13.1h-26   c-8.7,0-12.9-3.5-12.9-11v-39.7c0,0,19.3,0,25.6,0.5c4.9,0.3,7.8,1.7,9.4,8.5l2.1,9.1h7.5l-0.5-22.8l1-23h-7.5l-2.4,10.1   c-1.6,6.6-2.6,7.8-9.4,8.5c-8.9,0.9-25.8,0.7-25.8,0.7V186z M348,329.4c-5.2,0-6.8-2.4-7.5-5.9l-2.6-13.6l-7.3,0.3   c-1,8-2.6,17.1-4.7,24.2c4.9,3.3,10.8,4.9,18.8,4.9c11.9,0,29.6-3.3,45.7-41.1l27.9-66.1c2.3-5.2,3-5.9,9.8-8.5l3.7-1.4v-6.1   l-16.6,0.9l-17.6-0.9v6.1l4.5,1.4c4.5,1.4,6.6,3,6.6,6.6c0,1.9-0.5,2.8-1.6,5.2c-1.9,4.9-14.3,35.4-20.4,48.6   c-7.7-19.2-18.1-47.8-19.3-51.9c-0.3-1-0.5-1.9-0.5-2.8c0-2.8,1.9-5.1,6.1-5.9l5.8-1.2v-6.1l-23.9,0.9l-19-0.9v6.1l3.1,1   c4.5,1.6,5.1,2.1,8,8.7c12,27.2,25.4,61.9,29.8,73.2C367.3,324.2,356.2,329.4,348,329.4L348,329.4z M276.7,273.1l-6.6,0.2   c0.9,8.4,1,16.7,0,24.4c0,0,13.2,4.9,26.7,4.9c18.1,0,32.6-8.7,32.6-25.6c0-29.6-43.9-24.9-43.9-44.8c0-8.2,7.5-11.3,15.2-11.3   c6.4,0,11.7,2.3,12.7,5.6l4.4,13.1l6.4-0.3c0.3-7,0.9-15,1.9-21.4c-5.6-2.4-17.3-3.8-24.6-3.8c-17.1,0-30.9,7.5-30.9,24.2   c0,29.3,42.9,22.8,42.9,44.8c0,7.3-4.7,12.9-15.2,12.9c-9.9,0-14.8-5.1-16.7-10.1L276.7,273.1z M221.8,190.9   c-3.7,21.1-13.8,28.8-26.1,30.2v6.1h15.5v53.5c0,15,9.9,22.3,23.2,22.3c10.3,0,20.9-4.4,24.6-13.4l-3.7-4.7   c-1.7,3-7.3,7.3-14.3,7.3c-7.7,0-11.9-5.2-11.9-18.5v-47.2l25.8,1.9l1.4-11.9l-27.2,1v-26.7H221.8z"/></g></svg>